<svg xmlns="http://www.w3.org/2000/svg" width="630" height="582" viewBox="0 0 630 582">
  <defs>
    <style>
      .cls-1 {
        fill: #f2f2f2;
      }

      .cls-1, .cls-2, .cls-3, .cls-4, .cls-5, .cls-6 {
        fill-rule: evenodd;
      }

      .cls-2 {
        fill: none;
        stroke: #5ae6a2;
        stroke-linecap: round;
        stroke-width: 5px;
      }

      .cls-3 {
        fill: #724203;
      }

      .cls-4 {
        fill: #f9b13b;
      }

      .cls-5 {
        fill: #eb8310;
      }

      .cls-6 {
        fill: #f4981f;
      }
    </style>
  </defs>
  <g id="Artboard_1" data-name="Artboard 1">
    <g id="illustration">
      <path id="BACK" class="cls-1" d="M327.723,202.79c-29.581-19.068-51.573-77.519-92.058-107.052-48.183-35.148-114.5-35.145-138.927,40.23C55.958,261.8,119.592,397.38,244.637,440.717S506.2,417.876,549.567,292.9c22.728-65.5-30-95.074-80.375-91.89C423.451,203.906,383.679,238.859,327.723,202.79Z"/>
      <g id="flower">
        <path class="cls-2" d="M350.817,343.469s7.4-17.313,50.029-48,41.921-57.813,35.021-91"/>
        <path class="cls-2" d="M372.83,352.469s58.318,3.616,89.053-15c31.4-19.02,42.921-57.313,45.026-88"/>
        <path class="cls-3" d="M280.776,300.469s9.9-5.813,27.015-1,19.408,20.187,27.016,27,35.917,12.687,47.028,20,11.9,23.187,37.022,30,54.428-11.313,67.04-4,13.9,25.687-13.008,32-65.143,1.687-80.047,4-32.123,12.687-51.03,13a197.929,197.929,0,0,1-55.033-7c-17.715-4.762-25.619,4.687-31.018,3s24.014-114,24.014-114"/>
        <path class="cls-4" d="M185.719,251.469l-95.056,51s32.519,6.375,46.027,55-7,74-7,74l114.068-16s39.534-6.66,6-102C217.392,221.442,185.719,251.469,185.719,251.469Z"/>
        <path class="cls-5" d="M92.677,301.387c-14.6,4.211-18.053,36.661-7.71,72.478s30.563,61.44,45.164,57.229,18.053-36.661,7.711-72.479S107.278,297.176,92.677,301.387Z"/>
        <path class="cls-6" d="M200.728,236.469l25.015-8s16.124,0.752,36.021,26c23.347,29.625,38.023,79.875,37.022,111s-12.007,48-12.007,48l-33.019,8s19.511-30.125,13.007-64-22.013-77.625-33.019-92S200.728,236.469,200.728,236.469Z"/>
        <path class="cls-5" d="M186.72,251.469s3-15.625,19.011-16,47.48,42.194,58.034,75c11.95,37.141,15.807,101.278-5,109-12.944,4.8-21.013-4-21.013-4a18.507,18.507,0,0,0,18.011-11c8-16.875,4.876-54.934-6-88-7.675-23.327-23.514-53.125-42.025-65C198.445,245.511,186.72,251.469,186.72,251.469Z"/>
      </g>
    </g>
  </g>
</svg>
